<svg xmlns="http://www.w3.org/2000/svg" version="1.1" x="0" y="0" viewBox="0 0 106 106" xml:space="preserve">
  <path fill='#ffffff' d="M53 12c22.6 0 41 18.4 41 41S75.6 94 53 94 12 75.6 12 53 30.4 12 53 12M53 0C23.7 0 0 23.7 0 53s23.7 53 53 53 53-23.7 53-53S82.3 0 53 0L53 0z"/>
  <path fill='#ffffff' d="M62 71.9l-4.8-8.4c-2-3.2-3.2-5.3-4.4-7.5h-0.1c-1.1 2.2-2.1 4.2-4.1 7.5L44 71.9h-5.6l11.6-19.1L38.8 34.1h5.7l5 8.9c1.4 2.5 2.5 4.4 3.5 6.4h0.2c1.1-2.2 2-4 3.4-6.4l5.2-8.9h5.6L55.8 52.5l11.8 19.4H62z"/>
</svg>
